<svg xmlns="http://www.w3.org/2000/svg" width="50" height="50" viewBox="0 0 50 50">
  <g id="Group_41423" data-name="Group 41423" transform="translate(-393 -913)">
    <g id="Oval" transform="translate(393 913)" fill="none" stroke="#ff3b30" stroke-width="3">
      <circle cx="25" cy="25" r="25" stroke="none"/>
      <circle cx="25" cy="25" r="23.5" fill="none"/>
    </g>
    <path id="Union_10" data-name="Union 10" d="M7249.757,24626.84l-2.3-2.309-3.454-3.451-3.45,3.451-2.312,2.309a.5.5,0,0,1-.389.156.5.5,0,0,1-.382-.156l-2.312-2.309a.554.554,0,0,1,0-.775c1.574-1.576,2.23-2.219,5.764-5.756l-5.764-5.76a.509.509,0,0,1-.158-.393.489.489,0,0,1,.158-.381l2.312-2.311a.5.5,0,0,1,.382-.16.5.5,0,0,1,.389.16c2.331,2.332,4.216,4.223,5.758,5.766,1.543-1.543,3.429-3.434,5.76-5.766a.5.5,0,0,1,.389-.16.482.482,0,0,1,.381.16l2.312,2.311a.488.488,0,0,1,.159.381.508.508,0,0,1-.159.393l-5.763,5.762c3.534,3.535,4.19,4.182,5.763,5.754a.552.552,0,0,1,0,.775l-2.312,2.309a.486.486,0,0,1-.381.156A.5.5,0,0,1,7249.757,24626.84Z" transform="translate(-6825.999 -23679.998)" fill="#ff3b30"/>
  </g>
</svg>
